HIERARCHY
ROOT Hips
{
  OFFSET 39.3903 93.0167 -18.7143
  CHANNELS 6 Xposition Yposition Zposition Zrotation Xrotation Yrotation
  JOINT LeftUpLeg
  {
    OFFSET 9 -3.38008e-006 -5.22998e-009
    CHANNELS 6 Xposition Yposition Zposition Zrotation Xrotation Yrotation
    JOINT LeftLowLeg
    {
      OFFSET -0.575 -51.431 3.90177
      CHANNELS 6 Xposition Yposition Zposition Zrotation Xrotation Yrotation
      JOINT LeftFoot
      {
        OFFSET 2.13082e-007 -43.5882 -3.90177
        CHANNELS 6 Xposition Yposition Zposition Zrotation Xrotation Yrotation
        End Site
        {
          OFFSET 7.44796e-007 -6.93413 15.0046
        }
      }
    }
  }
  JOINT RightUpLeg
  {
    OFFSET -9 6.86154e-007 -3.19533e-009
    CHANNELS 6 Xposition Yposition Zposition Zrotation Xrotation Yrotation
    JOINT RightLowLeg
    {
      OFFSET 0.575 -51.4311 3.90177
      CHANNELS 6 Xposition Yposition Zposition Zrotation Xrotation Yrotation
      JOINT RightFoot
      {
        OFFSET -7.46079e-007 -43.5882 -3.90177
        CHANNELS 6 Xposition Yposition Zposition Zrotation Xrotation Yrotation
        End Site
        {
          OFFSET 4.66716e-007 -6.93413 15.0046
        }
      }
    }
  }
  JOINT Chest
  {
    OFFSET 1.23234e-007 14.8421 1.27324e-009
    CHANNELS 6 Xposition Yposition Zposition Zrotation Xrotation Yrotation
    JOINT Neck
    {
      OFFSET 0.51659 29.8236 6.51843
      CHANNELS 6 Xposition Yposition Zposition Zrotation Xrotation Yrotation
      JOINT Head
      {
        OFFSET 1.16803e-007 7.47049 6.44171e-007
        CHANNELS 6 Xposition Yposition Zposition Zrotation Xrotation Yrotation
        End Site
        {
          OFFSET -4.32676e-008 16.2908 2.16786e-007
        }
      }
    }
    JOINT RightCollar
    {
      OFFSET -6.11406 27.2248 4.23427
      CHANNELS 6 Xposition Yposition Zposition Zrotation Xrotation Yrotation
      JOINT RightUpArm
      {
        OFFSET -10.4566 2.3285 -0.910794
        CHANNELS 6 Xposition Yposition Zposition Zrotation Xrotation Yrotation
        JOINT RightLowArm
        {
          OFFSET -3.86856 -25.191 -1.74633
          CHANNELS 6 Xposition Yposition Zposition Zrotation Xrotation Yrotation
          JOINT RightHand
          {
            OFFSET -1.04759 -20.6242 1.75213
            CHANNELS 6 Xposition Yposition Zposition Zrotation Xrotation Yrotation
            End Site
            {
              OFFSET -2.03487e-006 -9.50367 -4.31372e-006
            }
          }
        }
      }
    }
    JOINT LeftCollar
    {
      OFFSET 6.64893 27.3161 3.27471
      CHANNELS 6 Xposition Yposition Zposition Zrotation Xrotation Yrotation
      JOINT LeftUpArm
      {
        OFFSET 10.8584 2.41798 -0.945791
        CHANNELS 6 Xposition Yposition Zposition Zrotation Xrotation Yrotation
        JOINT LeftLowArm
        {
          OFFSET 3.77631 -24.5904 -1.70468
          CHANNELS 6 Xposition Yposition Zposition Zrotation Xrotation Yrotation
          JOINT LeftHand
          {
            OFFSET 1.01026 -21.1231 1.74131
            CHANNELS 6 Xposition Yposition Zposition Zrotation Xrotation Yrotation
            End Site
            {
              OFFSET 1.17583e-006 -9.81266 -2.89439e-008
            }
          }
        }
      }
    }
  }
}
MOTION
Frames:	4
Frame Time:	0.0333333
39.3903 93.0167 -18.7143 0.16441 -7.95926 -1.71261 9 -3.38008e-006 -5.22998e-009 10.7498 -9.31693 12.5835 -0.575 -51.431 3.90177 -1.20101 40.8132 -20.4893 2.13082e-007 -43.5882 -3.90177 13.9286 -15.5372 0.443662 -9 6.86154e-007 -3.19533e-009 -11.7326 -10.2763 -13.5665 0.575 -51.4311 3.90177 -13.7529 38.4907 19.4309 -7.46079e-007 -43.5882 -3.90177 -6.81203 -14.4961 -0.0444358 1.23234e-007 14.8421 1.27324e-009 0.300573 5.76792 -3.52475 0.51659 29.8236 6.51843 -1.71059 -4.7787 0.410123 1.16803e-007 7.47049 6.44171e-007 -0.0311717 17.4914 0.313379 -6.11406 27.2248 4.23427 -1.96452 7.32629 3.42623 -10.4566 2.3285 -0.910794 -35.0461 -66.1968 6.10147 -3.86856 -25.191 -1.74633 6.97165 -24.0954 74.1273 -1.04759 -20.6242 1.75213 -14.8792 3.11217 -1.45315 6.64893 27.3161 3.27471 -2.94784 5.93879 -4.20517 10.8584 2.41798 -0.945791 24.3327 -68.9551 -29.6617 3.77631 -24.5904 -1.70468 7.69521 -4.3927 -37.3997 1.01026 -21.1231 1.74131 21.004 -2.36487 2.56094 
39.3381 92.9988 -18.7919 0.0723544 -7.7613 -1.98259 9 -3.38008e-006 -5.22998e-009 10.9709 -9.4952 12.8238 -0.575 -51.431 3.90177 -1.32845 40.8417 -20.4223 2.13082e-007 -43.5882 -3.90177 13.9793 -15.6512 0.459419 -9 6.86154e-007 -3.19533e-009 -11.5403 -10.625 -13.3494 0.575 -51.4311 3.90177 -13.8491 38.55 19.4721 -7.46079e-007 -43.5882 -3.90177 -6.80653 -14.4838 -0.0436578 1.23234e-007 14.8421 1.27324e-009 0.344241 5.70947 -3.32369 0.51659 29.8236 6.51843 -1.65952 -4.82987 0.340162 1.16803e-007 7.47049 6.44171e-007 -0.0255848 17.6127 0.262622 -6.11406 27.2248 4.23427 -1.96452 7.32629 3.42623 -10.4566 2.3285 -0.910794 -34.8072 -66.3468 6.32715 -3.86856 -25.191 -1.74633 6.81584 -24.0237 73.9351 -1.04759 -20.6242 1.75213 -14.7006 3.30706 -1.42395 6.64893 27.3161 3.27471 -2.94784 5.93879 -4.20517 10.8584 2.41798 -0.945791 23.7883 -68.4199 -30.8443 3.77631 -24.5904 -1.70468 8.97282 -4.98419 -36.1644 1.01026 -21.1231 1.74131 20.008 -2.46086 2.4254 
39.1135 92.9032 -19.1015 -0.241317 -7.14489 -3.15255 9 -3.38008e-006 -5.22998e-009 11.7992 -10.0532 13.7467 -0.575 -51.431 3.90177 -1.80146 41.125 -20.0002 2.13082e-007 -43.5882 -3.90177 13.9541 -15.6486 0.45812 -9 6.86154e-007 -3.19533e-009 -10.7771 -11.8954 -12.4863 0.575 -51.4311 3.90177 -14.2455 38.7696 19.8154 -7.46079e-007 -43.5882 -3.90177 -6.79957 -14.3355 -0.0365698 1.23234e-007 14.8421 1.27324e-009 0.0680465 5.18537 -2.38924 0.51659 29.8236 6.51843 -1.03866 -3.75 -0.0383892 1.16803e-007 7.47049 6.44171e-007 -0.198572 16.9099 0.145873 -6.11406 27.2248 4.23427 -1.96452 7.32629 3.42623 -10.4566 2.3285 -0.910794 -31.9089 -67.2065 8.75776 -3.86856 -25.191 -1.74633 5.0796 -22.2165 72.8243 -1.04759 -20.6242 1.75213 -14.9746 3.35358 -1.44675 6.64893 27.3161 3.27471 -2.94784 5.93879 -4.20517 10.8584 2.41798 -0.945791 23.9553 -68.8614 -31.3885 3.77631 -24.5904 -1.70468 9.50476 -3.93864 -36.1462 1.01026 -21.1231 1.74131 20.1745 -2.3502 2.43765 
39.1142 92.93 -19.0264 -0.237966 -7.23948 -3.14418 9 -3.38008e-006 -5.22999e-009 11.7606 -9.87611 13.7058 -0.575 -51.431 3.90177 -1.77919 41.0309 -20.0256 2.13082e-007 -43.5882 -3.90177 13.9688 -15.6806 0.462582 -9 6.86154e-007 -3.19533e-009 -10.8178 -11.706 -12.5522 0.575 -51.4311 3.90177 -14.1843 38.6885 19.7881 -7.46079e-007 -43.5882 -3.90177 -6.79804 -14.3694 -0.0380758 1.23234e-007 14.8421 1.27324e-009 0.0770082 5.39139 -2.38066 0.51659 29.8236 6.51843 -1.22931 -4.19339 0.0282486 1.16803e-007 7.47049 6.44171e-007 -0.117616 17.0595 0.125438 -6.11406 27.2248 4.23427 -1.96452 7.32629 3.42623 -10.4566 2.3285 -0.910794 -32.4027 -67.0503 8.27336 -3.86856 -25.191 -1.74633 5.37219 -22.6338 73.1647 -1.04759 -20.6242 1.75213 -14.8065 3.16464 -1.44289 6.64893 27.3161 3.27471 -2.94784 5.93879 -4.20517 10.8584 2.41798 -0.945791 24.3687 -69.3379 -29.7776 3.77631 -24.5904 -1.70468 8.7523 -3.74995 -37.0046 1.01026 -21.1231 1.74131 20.06 -2.42395 2.42896 
